<svg width="24" height="24" viewBox="0 0 24 24" fill="none" xmlns="http://www.w3.org/2000/svg">
<path d="M22 10.2336V7.87137C22 6.93837 21.2437 6.18204 20.3108 6.18204H3.68914C2.75629 6.182 2 6.93833 2 7.87133V10.2494C2.8577 10.3726 3.51773 11.1083 3.51773 12.0001C3.51773 12.892 2.8577 13.6277 2 13.7506V16.129C2 17.0617 2.75629 17.818 3.68914 17.818H20.3108C21.2436 17.818 22 17.0617 22 16.129V13.7664C21.0614 13.7225 20.3135 12.9497 20.3135 12.0002C20.3136 11.0507 21.0615 10.2779 22 10.2336ZM6.74668 16.7522H6.16555V15.2365H6.74668V16.7522ZM6.74668 14.0893H6.16555V12.5736H6.74668V14.0893ZM6.74668 11.4264H6.16555V9.9104H6.74668V11.4264ZM6.74668 8.76356H6.16555V7.24786H6.74668V8.76356Z" fill="#4B4B4B"/>
</svg>
