<svg width="24" height="24" viewBox="0 0 24 24" fill="none" xmlns="http://www.w3.org/2000/svg">
<path d="M20.7274 19.1232C21.4898 19.1232 22 18.5819 22 17.9135V8.25719C22 7.7677 21.7424 7.32641 21.3481 7.13965C20.9532 6.95164 20.4997 7.05543 20.1976 7.40149L18.1657 9.73059C17.7531 10.203 17.0848 10.203 16.6728 9.73059L12.7464 5.23106C12.3345 4.75863 11.6655 4.75863 11.2535 5.23106L7.32715 9.73055C6.91516 10.203 6.24684 10.203 5.83422 9.73055L3.80234 7.40145C3.50023 7.05539 3.04613 6.9516 2.65184 7.13961C2.25758 7.32637 2 7.76766 2 8.25719V17.9136C2 18.5819 2.51207 19.1233 3.27441 19.1233L20.7274 19.1232Z" fill="#4B4B4B"/>
</svg>
