<svg width="40" height="40" viewBox="0 0 40 40" fill="none" xmlns="http://www.w3.org/2000/svg">
<g clip-path="url(#clip0_40_2608)">
<path d="M5.99912 22.5512C5.46507 21.9419 5.11312 21.1646 5.11312 20.3071C5.11312 18.0986 6.9096 16.3021 9.11702 16.3021H14.2297C15.3528 16.2502 15.6264 16.0376 15.6376 16.0285L15.6468 16.0163C15.6162 15.7192 15.1015 14.9929 14.8493 14.6389C14.4871 14.1303 14.1453 13.6491 13.95 13.1151L13.8635 12.8811C13.364 11.5373 12.4332 9.03586 13.4424 6.16112C14.0537 4.41757 15.4138 3.33319 16.9905 3.33319C18.8267 3.33319 20.3535 4.80214 20.7025 6.90682C20.8195 7.61483 22.3718 10.2841 25.3351 13.7682C26.155 14.7326 27.0797 15.5342 28.0582 16.3825C28.8313 17.0519 29.6309 17.7436 30.4783 18.591C32.701 20.8127 33.759 24.5795 33.174 28.1847C32.6684 31.3057 31.0398 33.6982 28.5882 34.924C26.5801 35.9281 22.681 36.4896 19.7076 36.5994C18.4635 36.6452 17.5256 36.6665 16.7565 36.6665C15.2856 36.6665 14.5542 36.5841 13.6285 36.4794L13.3162 36.4448L13.2632 36.4387L11.7608 36.221L11.7323 36.2169C9.78623 35.8995 8.37432 34.2413 8.37432 32.2739L8.37738 32.1325C7.24105 31.4276 6.50153 30.1743 6.50153 28.7451C6.50153 28.2609 6.57581 27.8398 6.70394 27.4745C5.92776 26.7441 5.44456 25.7096 5.44456 24.5703C5.44469 23.843 5.64508 23.1493 5.99912 22.5512ZM9.01227 22.8156H7.84039C7.36129 23.2489 7.0581 23.8715 7.0581 24.5704C7.0581 25.316 7.407 25.9732 7.94411 26.4085H9.51475C9.81182 26.4085 10.0519 26.6486 10.0519 26.9456C10.0519 27.2426 9.81175 27.4838 9.51475 27.4838H8.53408C8.20856 27.8489 8.11494 28.2803 8.11494 28.7452C8.11494 29.4868 8.4598 30.1419 8.99183 30.5762H10.5024C10.8005 30.5762 11.0406 30.8173 11.0406 31.1144C11.0406 31.4114 10.8005 31.6515 10.5024 31.6515H10.0772C10.0203 31.8499 9.98773 32.0573 9.98773 32.2741C9.98773 33.4622 10.8554 34.4388 11.9917 34.6239L13.4942 34.8417C14.5826 34.9617 15.2215 35.0532 16.7565 35.0532C17.4767 35.0532 18.3942 35.0329 19.6475 34.9861C22.4887 34.8814 26.1335 34.3473 27.8669 33.4806C32.7192 31.0544 32.7222 23.1168 29.3368 19.7314C27.4254 17.82 25.6604 16.643 24.1061 14.814C21.7043 11.9891 19.3524 8.63521 19.1104 7.17037C18.8724 5.73397 17.9396 4.94667 16.9904 4.94667C16.1929 4.94667 15.3831 5.50311 14.964 6.69634C14.0912 9.18456 15.0424 11.4001 15.4646 12.5598C15.8897 13.7215 18.2345 15.6075 16.8053 17.1405C16.2743 17.7101 15.2316 17.8749 14.2652 17.9167H9.11689C7.79548 17.9167 6.72633 18.9868 6.72633 20.3072C6.72633 20.8718 7.04573 21.3794 7.46891 21.7395H9.01214C9.30921 21.7395 9.55029 21.9796 9.55029 22.2766C9.55029 22.5736 9.30928 22.8156 9.01227 22.8156Z" fill="#7E7E7E"/>
</g>
<defs>
<clipPath id="clip0_40_2608">
<rect width="33.3333" height="33.3333" fill="white" transform="matrix(-1 0 0 1 36.6665 3.33331)"/>
</clipPath>
</defs>
</svg>
