<svg width="80" height="80" viewBox="0 0 80 80" fill="none" xmlns="http://www.w3.org/2000/svg">
<g clip-path="url(#clip0_33_5862)">
<path d="M63.0532 45.0426C64.9249 45.1586 67.6675 43.1505 67.6675 40.6785C67.6675 37.7569 65.2993 35.3848 62.3717 35.3848H50.9744C48.834 35.2932 46.527 34.929 45.349 33.6676C42.1853 30.274 47.3774 26.0952 48.3174 23.5255C49.2533 20.956 51.3589 16.0487 49.4262 10.5413C47.3958 4.75312 41.217 5.73372 40.2465 11.5911C39.7115 14.8341 34.5011 22.2621 29.1829 28.5161C25.7404 32.5668 21.8342 35.173 17.6004 39.4048C10.1033 46.902 10.1094 64.478 20.8577 69.8512C24.6928 71.7697 32.7657 72.9518 39.0564 73.1857C47.7458 73.5091 49.1395 73.2569 52.6835 72.8642L56.0079 72.384C58.5245 71.9731 60.4432 69.8083 60.4432 67.1777C60.4432 66.2418 60.1787 65.3751 59.7534 64.6102C62.4593 64.3762 64.5915 62.1322 64.5915 59.3652C64.5915 57.7681 64.1093 56.3379 61.9406 55.3816C64.7217 55.2189 66.9312 52.9382 66.9312 50.1204C66.9309 47.6895 65.285 45.6632 63.0532 45.0426Z" fill="white"/>
</g>
<defs>
<clipPath id="clip0_33_5862">
<rect width="66.6667" height="66.6667" fill="white" transform="translate(6.6665 6.66666)"/>
</clipPath>
</defs>
</svg>
