<svg width="40" height="40" viewBox="0 0 40 40" fill="none" xmlns="http://www.w3.org/2000/svg">
<g clip-path="url(#clip0_40_2602)">
<path d="M34.0009 22.5512C34.5349 21.9419 34.8869 21.1646 34.8869 20.3071C34.8869 18.0986 33.0904 16.3021 30.883 16.3021H25.7703C24.6472 16.2502 24.3736 16.0376 24.3624 16.0285L24.3532 16.0163C24.3838 15.7192 24.8985 14.9929 25.1507 14.6389C25.5129 14.1303 25.8547 13.6491 26.05 13.1151L26.1365 12.8811C26.636 11.5373 27.5668 9.03586 26.5576 6.16112C25.9463 4.41757 24.5862 3.33319 23.0095 3.33319C21.1733 3.33319 19.6465 4.80214 19.2975 6.90682C19.1805 7.61483 17.6282 10.2841 14.6649 13.7682C13.845 14.7326 12.9203 15.5342 11.9418 16.3825C11.1687 17.0519 10.3691 17.7436 9.52171 18.591C7.29899 20.8127 6.24105 24.5795 6.82601 28.1847C7.33161 31.3057 8.96019 33.6982 11.4118 34.924C13.4199 35.9281 17.319 36.4896 20.2924 36.5994C21.5365 36.6452 22.4744 36.6665 23.2435 36.6665C24.7144 36.6665 25.4458 36.5841 26.3715 36.4794L26.6838 36.4448L26.7368 36.4387L28.2392 36.221L28.2677 36.2169C30.2138 35.8995 31.6257 34.2413 31.6257 32.2739L31.6226 32.1325C32.759 31.4276 33.4985 30.1743 33.4985 28.7451C33.4985 28.2609 33.4242 27.8398 33.2961 27.4745C34.0722 26.7441 34.5554 25.7096 34.5554 24.5703C34.5553 23.843 34.3549 23.1493 34.0009 22.5512ZM30.9877 22.8156H32.1596C32.6387 23.2489 32.9419 23.8715 32.9419 24.5704C32.9419 25.316 32.593 25.9732 32.0559 26.4085H30.4853C30.1882 26.4085 29.9481 26.6486 29.9481 26.9456C29.9481 27.2426 30.1882 27.4838 30.4853 27.4838H31.4659C31.7914 27.8489 31.8851 28.2803 31.8851 28.7452C31.8851 29.4868 31.5402 30.1419 31.0082 30.5762H29.4976C29.1995 30.5762 28.9594 30.8173 28.9594 31.1144C28.9594 31.4114 29.1995 31.6515 29.4976 31.6515H29.9228C29.9797 31.8499 30.0123 32.0573 30.0123 32.2741C30.0123 33.4622 29.1446 34.4388 28.0083 34.6239L26.5058 34.8417C25.4174 34.9617 24.7785 35.0532 23.2435 35.0532C22.5233 35.0532 21.6058 35.0329 20.3525 34.9861C17.5113 34.8814 13.8665 34.3473 12.1331 33.4806C7.28083 31.0544 7.27777 23.1168 10.6632 19.7314C12.5746 17.82 14.3396 16.643 15.8939 14.814C18.2957 11.9891 20.6476 8.63521 20.8896 7.17037C21.1276 5.73397 22.0604 4.94667 23.0096 4.94667C23.8071 4.94667 24.6169 5.50311 25.036 6.69634C25.9088 9.18456 24.9576 11.4001 24.5354 12.5598C24.1103 13.7215 21.7655 15.6075 23.1947 17.1405C23.7257 17.7101 24.7684 17.8749 25.7348 17.9167H30.8831C32.2045 17.9167 33.2737 18.9868 33.2737 20.3072C33.2737 20.8718 32.9543 21.3794 32.5311 21.7395H30.9879C30.6908 21.7395 30.4497 21.9796 30.4497 22.2766C30.4497 22.5736 30.6907 22.8156 30.9877 22.8156Z" fill="#7E7E7E"/>
</g>
<defs>
<clipPath id="clip0_40_2602">
<rect width="33.3333" height="33.3333" fill="white" transform="translate(3.3335 3.33331)"/>
</clipPath>
</defs>
</svg>
