<svg width="41" height="40" viewBox="0 0 41 40" fill="none" xmlns="http://www.w3.org/2000/svg">
<g clip-path="url(#clip0_33_7135)">
<path d="M20.5012 3.33331C11.2961 3.33331 3.8335 10.7959 3.8335 20C3.8335 29.2041 11.2961 36.6666 20.5012 36.6666C29.7043 36.6666 37.1668 29.2041 37.1668 20C37.1668 10.7959 29.7043 3.33331 20.5012 3.33331ZM20.5012 32.6322C13.5361 32.6322 7.86794 26.964 7.86794 20C7.86794 17.5413 8.5861 15.2504 9.80785 13.3085H31.1935C32.4142 15.2504 33.1304 17.5413 33.1304 20C33.1304 26.9641 27.4643 32.6322 20.5012 32.6322Z" fill="#4B4B4B"/>
<path d="M25.0532 25.6376H15.9468V27.7413H25.0532V25.6376Z" fill="#4B4B4B"/>
<path d="M18.1186 21.064L16.5816 19.526L18.1186 17.9888L16.6487 16.5169L15.1106 18.055L13.5725 16.5169L12.1016 17.9879L13.6396 19.526L12.1016 21.064L13.5725 22.535L15.1106 20.9969L16.6487 22.535L18.1186 21.064Z" fill="#4B4B4B"/>
<path d="M27.4274 16.5169L25.8894 18.055L24.3513 16.5169L22.8804 17.9879L24.4185 19.526L22.8804 21.064L24.3513 22.535L25.8894 20.9969L27.4274 22.535L28.8984 21.064L27.3603 19.526L28.8984 17.9888L27.4274 16.5169Z" fill="#4B4B4B"/>
</g>
<defs>
<clipPath id="clip0_33_7135">
<rect width="33.3333" height="33.3333" fill="white" transform="translate(3.8335 3.33331)"/>
</clipPath>
</defs>
</svg>
