<svg width="24" height="24" viewBox="0 0 24 24" fill="none" xmlns="http://www.w3.org/2000/svg">
<g clip-path="url(#clip0_21_1623)">
<path d="M7.01455 15.0544C6.91561 14.9741 6.81557 14.8954 6.72021 14.8101L6.7192 14.8122C6.71678 14.8101 6.71416 14.8082 6.71174 14.8061L4.3467 19.8723L4.27881 20.0542L4.36822 20.1961C4.43299 20.2946 4.53791 20.3532 4.65502 20.3532H4.71057L6.97076 19.6503L7.86502 21.7903C7.92049 21.9166 8.0408 22 8.17955 22C8.31217 22 8.4324 21.9229 8.48787 21.8025L10.3171 17.885L10.8579 16.7332C10.857 16.7331 10.856 16.7329 10.8551 16.7328L10.8592 16.7239C9.41865 16.5183 8.10213 15.9226 7.01455 15.0544Z" fill="#4B4B4B"/>
<path d="M17.8195 15.9554L17.2884 14.8131C17.2877 14.8136 17.287 14.8142 17.2863 14.8148L17.2822 14.8061C16.2183 15.7435 14.9005 16.3994 13.4525 16.6643C13.3506 16.6822 13.2493 16.7032 13.1464 16.717L13.1475 16.7192C13.1443 16.7197 13.1411 16.7205 13.1379 16.7209L15.5092 21.8026C15.5647 21.923 15.6849 22 15.8175 22C15.9563 22 16.0765 21.9167 16.132 21.7904L17.0263 19.6503L19.2434 20.3379L19.2958 20.3533H19.3421C19.4592 20.3533 19.5641 20.2947 19.6288 20.1962L19.7214 20.0234L17.8195 15.9554Z" fill="#4B4B4B"/>
<path d="M18.7808 8.78375C18.7808 5.03727 15.7434 2 11.997 2C8.2504 2 5.21313 5.03727 5.21313 8.78375C5.21313 12.5334 8.2504 15.5677 11.997 15.5677C15.7434 15.5677 18.7808 12.5334 18.7808 8.78375ZM11.997 11.926C10.2671 11.926 8.8579 10.5167 8.8579 8.78375C8.8579 7.05387 10.267 5.64473 11.997 5.64473C13.7299 5.64473 15.1391 7.05387 15.1391 8.78375C15.1391 10.5167 13.7299 11.926 11.997 11.926Z" fill="#4B4B4B"/>
</g>
<defs>
<clipPath id="clip0_21_1623">
<rect width="20" height="20" fill="white" transform="translate(2 2)"/>
</clipPath>
</defs>
</svg>
