<svg width="34" height="34" viewBox="0 0 34 34" fill="none" xmlns="http://www.w3.org/2000/svg">
<g clip-path="url(#clip0_21_692)">
<path d="M23.4751 24.4884C23.4743 24.4884 23.4743 24.4884 23.4736 24.4891C23.4729 24.4899 23.4722 24.4906 23.4707 24.4913L23.4751 24.4884Z" fill="#4B4B4B"/>
<path d="M24.0868 23.9402L24.0861 23.9409C24.0853 23.9415 24.0853 23.9424 24.0847 23.9431L24.0868 23.9402Z" fill="#4B4B4B"/>
<path d="M9.91388 23.9402L9.91982 23.9468C9.91909 23.9461 9.91909 23.9461 9.91909 23.9453C9.91836 23.9445 9.91679 23.9431 9.91617 23.9424L9.91388 23.9402Z" fill="#4B4B4B"/>
<path d="M14.511 22.5978L14.5012 22.5955C14.5017 22.5955 14.5021 22.5959 14.5021 22.5959C14.5026 22.5959 14.5026 22.5959 14.5026 22.5959L14.511 22.5978Z" fill="#4B4B4B"/>
<path d="M29.5581 12.0486C29.2507 11.5665 28.8807 11.2161 28.601 10.9053C28.4612 10.753 28.3441 10.6146 28.2672 10.5044C28.1889 10.3937 28.1565 10.3145 28.1505 10.2895C28.1435 10.2635 28.1351 10.2126 28.1356 10.1372C28.1324 9.9459 28.1972 9.61302 28.287 9.23197C28.3722 8.8472 28.4824 8.41465 28.4862 7.91139C28.4862 7.57383 28.4283 7.17936 28.2111 6.80338C28.0884 6.59088 27.9314 6.41536 27.768 6.27552C27.4791 6.0306 27.1753 5.88522 26.8892 5.77038C26.4594 5.60137 26.0487 5.49811 25.7274 5.38795C25.5676 5.33424 25.4315 5.28001 25.3347 5.23008C25.2366 5.18092 25.1806 5.13698 25.1606 5.11614L25.1602 5.11523C25.1282 5.08789 25.0449 4.9666 24.9657 4.76055C24.8407 4.45312 24.7295 3.99518 24.5536 3.51081C24.4629 3.26771 24.3535 3.01348 24.1888 2.75976C24.0244 2.50833 23.7938 2.25085 23.4743 2.06614C23.0974 1.84896 22.7034 1.79062 22.3659 1.79108C21.8625 1.79433 21.43 1.90501 21.0453 1.99017C20.6642 2.08001 20.3308 2.14486 20.1401 2.1416C20.0642 2.14206 20.0136 2.13372 19.9877 2.12637C19.9549 2.12122 19.8248 2.05963 19.6544 1.92122C19.3946 1.71745 19.0691 1.37435 18.6704 1.04193C18.4685 0.876171 18.244 0.710415 17.9707 0.573827C17.6998 0.438475 17.3692 0.333332 16.9997 0.333332C16.5038 0.334244 16.0912 0.517642 15.7713 0.719074C15.2897 1.02695 14.9392 1.39694 14.6285 1.67611C14.4762 1.81641 14.3378 1.93353 14.2276 2.00996C14.1169 2.08822 14.0382 2.12064 14.0132 2.12624C13.9864 2.13366 13.9359 2.14199 13.8604 2.14147C13.6696 2.14473 13.3368 2.07988 12.9557 1.99004C12.5704 1.90443 12.138 1.7942 11.6342 1.79043C11.2966 1.79043 10.9026 1.84883 10.5266 2.06504L10.5169 2.07064L10.5248 2.06647C10.3127 2.18919 10.1377 2.34609 9.99834 2.50957C9.75381 2.7985 9.60843 3.10182 9.49359 3.38795C9.3251 3.8181 9.22184 4.22832 9.11162 4.54967C9.05746 4.70989 9.00322 4.84557 8.95368 4.94277C8.9042 5.04043 8.86065 5.09648 8.84027 5.11595C8.81201 5.14792 8.69027 5.23177 8.48421 5.31139C8.17627 5.43639 7.71839 5.54707 7.23402 5.7235C6.99092 5.8138 6.73675 5.92311 6.48298 6.08835C6.23154 6.25273 5.97451 6.48379 5.78981 6.80325C5.57262 7.17923 5.51429 7.5737 5.51429 7.91172C5.51807 8.41504 5.62874 8.84753 5.7139 9.23275C5.8042 9.6138 5.86904 9.94681 5.86585 10.1375C5.86585 10.213 5.85798 10.2639 5.85049 10.2898L5.85094 10.2889C5.84541 10.3223 5.78337 10.4529 5.64443 10.6228C5.44072 10.883 5.09756 11.2081 4.76514 11.6068C4.59938 11.8082 4.43311 12.0327 4.29652 12.3059C4.1613 12.5768 4.05615 12.9074 4.05615 13.2769C4.05706 13.7728 4.24046 14.1858 4.44183 14.5058C4.74977 14.9878 5.12021 15.3388 5.39984 15.649C5.54014 15.8018 5.65726 15.9398 5.73415 16.0505C5.8124 16.1611 5.84482 16.2399 5.85081 16.2654L5.85498 16.2815L5.85029 16.2644C5.85771 16.2908 5.86566 16.3413 5.86566 16.4167C5.86885 16.6075 5.80407 16.9404 5.7137 17.3215C5.62855 17.7067 5.51787 18.1392 5.5141 18.6425C5.5141 18.981 5.57249 19.3751 5.78962 19.751C5.91182 19.9632 6.06885 20.1391 6.23271 20.2785C6.52119 20.5239 6.8249 20.6693 7.11156 20.784C7.54124 20.9531 7.95192 21.0559 8.27328 21.1661C8.4335 21.2202 8.56917 21.2744 8.66637 21.324C8.76403 21.3735 8.82009 21.4171 8.83955 21.4378C8.86917 21.4643 8.94235 21.5675 9.01507 21.7458C9.08916 21.9217 9.1637 22.1615 9.24521 22.4287L9.24469 22.4269C9.31416 22.6551 9.38962 22.9029 9.49059 23.1594C9.59242 23.415 9.71833 23.6826 9.91702 23.9433C9.99893 24.0521 10.0985 24.1572 10.2101 24.2563L7.27035 30.6049L11.3404 30.4832L13.8798 33.6667L16.7631 27.4384L19.6455 33.6662L22.1862 30.4828L26.2562 30.6046L23.4327 24.5079C23.4461 24.5005 23.4595 24.4963 23.4724 24.4889C23.7313 24.3393 23.9323 24.1425 24.0855 23.9407C24.3004 23.6564 24.431 23.3656 24.5365 23.0896C24.6921 22.6757 24.7921 22.282 24.899 21.976C24.9509 21.8232 25.0032 21.6945 25.0513 21.6028C25.0986 21.5102 25.1407 21.4574 25.1602 21.4384C25.1889 21.4061 25.3107 21.3227 25.5168 21.243C25.8247 21.118 26.2826 21.0069 26.7665 20.8309C27.0096 20.7406 27.2638 20.6314 27.5175 20.466C27.769 20.3021 28.0259 20.071 28.2107 19.7516C28.4284 19.3751 28.4862 18.9806 28.4862 18.643C28.483 18.1398 28.3723 17.7073 28.2871 17.3225C28.1973 16.9414 28.1325 16.6085 28.1357 16.4173C28.1352 16.3413 28.1436 16.2908 28.1506 16.2649C28.1565 16.2316 28.2181 16.101 28.3565 15.9311C28.5603 15.6713 28.903 15.3458 29.2354 14.9471C29.4011 14.7456 29.5674 14.5206 29.7035 14.2479C29.8387 13.977 29.9439 13.6464 29.9439 13.2769C29.9429 12.7811 29.7595 12.3685 29.5581 12.0486ZM27.9523 13.4964C27.8236 13.7099 27.5268 14.0183 27.2017 14.3688C27.0397 14.5466 26.8702 14.7387 26.7123 14.9637C26.5562 15.1888 26.4062 15.4504 26.3187 15.775C26.2585 15.9991 26.239 16.2154 26.239 16.4172C26.2423 16.9233 26.3525 17.3595 26.4381 17.7452C26.528 18.1267 26.5928 18.4587 26.5896 18.643C26.5896 18.7046 26.584 18.7481 26.5784 18.7722L26.5691 18.8018L26.5353 18.837C26.4894 18.8782 26.3695 18.9508 26.1889 19.0213C25.919 19.1301 25.5332 19.231 25.1193 19.3695C24.9119 19.4404 24.6952 19.5214 24.4748 19.6334C24.2549 19.7454 24.028 19.8889 23.8196 20.0969C23.551 20.3669 23.3894 20.6641 23.2653 20.9442C23.0819 21.3661 22.9772 21.7726 22.8685 22.1097C22.7652 22.4468 22.6494 22.7042 22.5758 22.7927L22.5744 22.7945L22.5379 22.8357L22.5268 22.8445L22.5203 22.8487L22.5235 22.8464L22.4943 22.8557C22.4703 22.8612 22.4272 22.8667 22.3651 22.8667C22.1813 22.87 21.8493 22.8051 21.4673 22.7153C21.0816 22.6296 20.6459 22.5195 20.1398 22.5162C19.9375 22.5162 19.7217 22.5357 19.4976 22.5954L19.4776 22.6009L19.4216 22.6185L19.4221 22.6194C18.9007 22.7861 18.5474 23.0811 18.2363 23.3487C17.9261 23.6233 17.6584 23.8928 17.4329 24.0734L17.4343 24.0725C17.3047 24.1775 17.1926 24.2507 17.1167 24.2864C17.039 24.3234 17.0079 24.3244 16.9996 24.3244C16.9917 24.3244 16.9606 24.3234 16.8829 24.2864C16.8074 24.2507 16.6959 24.178 16.5675 24.0738C16.3379 23.8895 16.0642 23.6122 15.7457 23.332C15.4234 23.0565 15.0544 22.7509 14.502 22.5958C14.2779 22.5356 14.0621 22.5161 13.8597 22.5161C13.3541 22.5194 12.9179 22.6296 12.5323 22.7152C12.1507 22.8051 11.8183 22.8699 11.634 22.8667C11.5724 22.8667 11.5289 22.8611 11.5048 22.8556L11.4752 22.8463L11.4738 22.8454L11.4266 22.7958L11.4256 22.7945L11.4243 22.793C11.3817 22.738 11.3173 22.6231 11.2543 22.462C11.1904 22.3013 11.127 22.0985 11.059 21.8749L11.0585 21.873C10.9774 21.61 10.8914 21.3178 10.7654 21.015C10.6381 20.7136 10.4718 20.3904 10.181 20.0969C9.86156 19.7811 9.50869 19.6112 9.18317 19.4797C8.69378 19.2884 8.22614 19.1783 7.89085 19.0518C7.72464 18.9907 7.59593 18.9282 7.5223 18.8796C7.44632 18.8291 7.43245 18.8036 7.43154 18.8018L7.43109 18.8008L7.42184 18.7717C7.4167 18.7476 7.41071 18.7046 7.41071 18.6424C7.40745 18.4586 7.4723 18.1266 7.56266 17.7451C7.64828 17.3594 7.75895 16.9232 7.76221 16.4167C7.76221 16.2148 7.74229 15.999 7.68304 15.7754L7.68259 15.7744C7.56305 15.341 7.34222 15.022 7.12738 14.7488C6.80003 14.3427 6.4527 14.0163 6.22718 13.7394C6.11423 13.6033 6.03408 13.4842 5.99476 13.4032C5.954 13.3203 5.95257 13.287 5.95257 13.2768C5.95166 13.2671 5.95726 13.2008 6.0471 13.0577C6.17627 12.8448 6.47354 12.5359 6.7986 12.1859C6.96064 12.0081 7.13057 11.816 7.28805 11.591C7.44456 11.3659 7.59456 11.1043 7.68259 10.7797L7.68304 10.7788C7.74229 10.5547 7.76221 10.3393 7.76221 10.1374C7.75895 9.63092 7.64828 9.19473 7.56266 8.80905C7.4723 8.42754 7.40752 8.09551 7.41071 7.91165C7.41071 7.84961 7.4167 7.80657 7.42184 7.78249L7.43109 7.75332L7.43154 7.75241L7.4654 7.71673C7.51078 7.67598 7.63115 7.60325 7.8113 7.53288C8.08122 7.42363 8.46742 7.32266 8.88135 7.18418C9.08877 7.1138 9.30596 7.03229 9.5264 6.92025C9.7458 6.8082 9.97321 6.66413 10.1816 6.4567C10.4969 6.13724 10.6664 5.78483 10.7974 5.45983C10.9886 4.9709 11.0993 4.50319 11.2257 4.16751C11.2869 4.00085 11.3494 3.87168 11.3985 3.79798C11.447 3.7248 11.4716 3.71003 11.4753 3.70768L11.5045 3.69844C11.529 3.69284 11.5726 3.68685 11.6341 3.68685C11.8188 3.68359 12.1509 3.74844 12.5324 3.8388C12.9181 3.92441 13.3543 4.03463 13.8604 4.03789C14.0623 4.03789 14.278 4.01849 14.5021 3.9582C14.9351 3.83965 15.2545 3.61927 15.5282 3.40397C15.9338 3.07754 16.2612 2.72975 16.5381 2.5043C16.6743 2.39082 16.7932 2.3112 16.8743 2.27135C16.9571 2.2306 16.9905 2.22969 16.9998 2.22969C17.0095 2.22871 17.0762 2.23431 17.2197 2.32461C17.4327 2.45332 17.742 2.75058 18.0921 3.07565C18.2699 3.23769 18.4621 3.40716 18.6871 3.56458C18.9121 3.72109 19.1737 3.87064 19.4983 3.95866C19.722 4.01842 19.9378 4.03782 20.1401 4.03782C20.6463 4.03457 21.0824 3.92435 21.4681 3.83874C21.8502 3.74837 22.1821 3.68359 22.366 3.6873C22.428 3.68685 22.4711 3.6929 22.4952 3.69798L22.5243 3.70723L22.56 3.74101C22.6013 3.78685 22.6739 3.90729 22.7443 4.08782C22.8531 4.35781 22.9541 4.74355 23.0925 5.15749C23.1633 5.36543 23.2448 5.5821 23.3564 5.80254C23.4689 6.02194 23.6125 6.24935 23.8203 6.45775L23.8356 6.47253L23.8199 6.45677C24.1399 6.77259 24.4922 6.94251 24.8173 7.07402C25.3067 7.26523 25.7744 7.37545 26.1091 7.50234C26.2758 7.56302 26.4045 7.62552 26.4782 7.67461C26.5541 7.72506 26.5685 7.75098 26.5699 7.75286L26.5786 7.78203C26.5841 7.80605 26.5898 7.84915 26.5898 7.9112C26.593 8.09551 26.5282 8.42747 26.4384 8.80905C26.3528 9.19479 26.2425 9.63092 26.2393 10.137C26.2393 10.3389 26.2587 10.5551 26.3185 10.7793C26.4379 11.2126 26.6588 11.5317 26.8737 11.8053C27.2006 12.2109 27.5479 12.5374 27.7733 12.8143C27.8863 12.9505 27.9659 13.0694 28.0053 13.1505C28.0461 13.2333 28.0475 13.2671 28.0475 13.2769C28.0481 13.2872 28.0426 13.3534 27.9523 13.4964Z" fill="#4B4B4B"/>
<path d="M16.9997 5.39056C12.644 5.39102 9.1138 8.92122 9.11334 13.277C9.11289 15.5537 10.0806 17.61 11.6258 19.0477C12.9264 20.2623 14.6452 21.0407 16.5399 21.1494H16.5404C16.5418 21.1494 16.5432 21.1499 16.5445 21.1499L16.5422 21.1494C16.696 21.1592 16.8488 21.1633 16.9997 21.1633C21.3559 21.1629 24.8856 17.6331 24.8861 13.2769C24.8857 8.92122 21.356 5.39102 16.9997 5.39056ZM21.5708 17.8476C20.3984 19.0186 18.7871 19.7405 16.9997 19.7409C16.8728 19.7409 16.7497 19.7377 16.6303 19.7298L16.6251 19.7294C15.0693 19.641 13.6654 19.0048 12.5958 18.0074C11.3262 16.8238 10.5363 15.1472 10.5358 13.277C10.5363 11.4897 11.2581 9.87838 12.4291 8.70644C13.601 7.53542 15.2124 6.81354 16.9997 6.81309C18.787 6.81354 20.3984 7.53542 21.5703 8.70644C22.7413 9.87838 23.4632 11.4897 23.4637 13.277C23.4633 15.0643 22.7414 16.6761 21.5708 17.8476Z" fill="#4B4B4B"/>
</g>
<defs>
<clipPath id="clip0_21_692">
<rect width="33.3333" height="33.3333" fill="white" transform="translate(0.333313 0.333332)"/>
</clipPath>
</defs>
</svg>
