<svg width="24" height="24" viewBox="0 0 24 24" fill="none" xmlns="http://www.w3.org/2000/svg">
<path d="M12 12.3636C14.8614 12.3636 17.1814 10.0436 17.1814 7.1818C17.1814 4.32078 14.8614 2 12 2C9.13817 2 6.8186 4.32078 6.8186 7.1818C6.8186 10.0436 9.13817 12.3636 12 12.3636Z" fill="#4B4B4B"/>
<path d="M18.6358 17.3556C18.4045 15.9699 17.2295 14.0545 16.3877 13.1578C16.16 12.9151 15.7647 13.0161 15.6258 13.102C14.5695 13.7533 13.3296 14.1332 12 14.1332C10.6705 14.1332 9.43058 13.7533 8.37433 13.102C8.23547 13.0161 7.84015 12.9151 7.61242 13.1578C6.77062 14.0545 5.5957 15.9699 5.36433 17.3556C4.7959 20.7673 8.44058 22 12.0001 22C15.5596 22 19.2043 20.7673 18.6358 17.3556Z" fill="#4B4B4B"/>
</svg>
