<svg width="80" height="80" viewBox="0 0 80 80" fill="none" xmlns="http://www.w3.org/2000/svg">
<rect width="80" height="80" rx="40" fill="#C9C9C9"/>
<g clip-path="url(#clip0_41_8986)">
<path d="M40 41.212C49.538 41.212 57.2713 33.4788 57.2713 23.9393C57.2713 14.4026 49.538 6.66666 40 6.66666C30.4607 6.66666 22.7288 14.4026 22.7288 23.9393C22.7288 33.4788 30.4607 41.212 40 41.212Z" fill="white"/>
<path d="M62.119 57.8521C61.3479 53.2331 57.4315 46.8483 54.6252 43.8592C53.8662 43.0504 52.5487 43.3868 52.0856 43.6734C48.5648 45.8443 44.4317 47.1108 39.9998 47.1108C35.5681 47.1108 31.435 45.8443 27.9142 43.6734C27.4513 43.3868 26.1336 43.0504 25.3744 43.8592C22.5685 46.8483 18.652 53.2331 17.8808 57.8521C15.986 69.2245 28.135 73.3333 40 73.3333C51.8649 73.3333 64.0139 69.2245 62.119 57.8521Z" fill="white"/>
</g>
<defs>
<clipPath id="clip0_41_8986">
<rect width="66.6667" height="66.6667" fill="white" transform="translate(6.66663 6.66666)"/>
</clipPath>
</defs>
</svg>
