<svg width="24" height="24" viewBox="0 0 24 24" fill="none" xmlns="http://www.w3.org/2000/svg">
<g clip-path="url(#clip0_21_1617)">
<path d="M16.4615 21.6448C16.0129 21.6448 15.5654 21.5337 15.1675 21.325L12.1286 19.7276C12.0498 19.6855 11.951 19.6855 11.8716 19.7276L8.83268 21.325C8.43533 21.5337 7.98795 21.6448 7.53935 21.6448C6.94791 21.6448 6.38275 21.4605 5.90482 21.1138C5.04361 20.4869 4.61943 19.4457 4.79826 18.3959L5.37994 15.0103C5.39521 14.9212 5.36529 14.8308 5.29998 14.7667L2.84146 12.3705C2.07853 11.6265 1.80873 10.5346 2.13771 9.52077C2.46791 8.50636 3.3285 7.78128 4.3826 7.62866L7.78041 7.13487C7.87014 7.12206 7.94764 7.06589 7.98795 6.98413L9.50771 3.90491C9.9783 2.94972 10.9335 2.35522 12.0004 2.35522C13.0667 2.35522 14.0219 2.94972 14.4931 3.90554L16.0129 6.98417C16.0531 7.06597 16.1307 7.1221 16.2204 7.13491L19.6176 7.6287C20.6723 7.78128 21.5323 8.5064 21.8619 9.51956C22.1915 10.5346 21.9217 11.6265 21.1588 12.3705L18.6997 14.7673C18.635 14.8308 18.6057 14.9212 18.6209 15.0115L19.2013 18.3946C19.3808 19.4463 18.9566 20.4875 18.0948 21.1137C17.6175 21.4605 17.0529 21.6448 16.4615 21.6448ZM12.0004 17.1905C12.449 17.1905 12.8964 17.3016 13.2937 17.5103L16.3333 19.1082C16.4096 19.1485 16.4975 19.179 16.622 19.0875C16.7081 19.0252 16.7502 18.9214 16.7319 18.8177L16.1521 15.4339C15.9976 14.5318 16.2967 13.6126 16.951 12.9742L19.4101 10.5767C19.4858 10.5035 19.512 10.3948 19.4797 10.2935C19.4479 10.1958 19.3606 10.1226 19.2581 10.108L15.8597 9.61358C14.9533 9.48175 14.1708 8.91288 13.7662 8.09257L12.2464 5.01394C12.153 4.82413 11.8472 4.82472 11.7538 5.01272L10.2341 8.09315C9.82943 8.91284 9.04693 9.48171 8.14178 9.61354L4.74271 10.1073C4.63955 10.1226 4.55228 10.1958 4.51994 10.2947C4.4876 10.3948 4.51443 10.5035 4.59014 10.5767L7.04924 12.9735C7.70416 13.6126 8.0026 14.5318 7.84881 15.4333L7.26775 18.8189C7.25006 18.9214 7.29217 19.0252 7.37764 19.0875C7.50338 19.1784 7.59064 19.1485 7.66756 19.1082L10.7065 17.5103C11.1038 17.3016 11.5512 17.1905 12.0004 17.1905Z" fill="#4B4B4B"/>
</g>
<defs>
<clipPath id="clip0_21_1617">
<rect width="20" height="20" fill="white" transform="translate(2 2)"/>
</clipPath>
</defs>
</svg>
